<?xml version="1.0" encoding="utf-8"?>
<!-- Generator: Adobe Illustrator 27.5.0, SVG Export Plug-In . SVG Version: 6.00 Build 0)  -->
<svg version="1.1" xmlns="http://www.w3.org/2000/svg" xmlns:xlink="http://www.w3.org/1999/xlink" x="0px" y="0px"
	 viewBox="0 0 750 500" style="enable-background:new 0 0 750 500;" xml:space="preserve">
<g id="BACKGROUND">
	<rect style="fill:#FEFEFD;" width="750" height="500"/>
</g>
<g id="OBJECTS">
	<g>
		<g>
			<path style="fill:#FCE5F0;" d="M650.581,313.371c5.532-17.494,8.533-36.112,8.533-55.435c0-101.449-82.241-183.69-183.69-183.69
				c-101.449,0-183.69,82.241-183.69,183.69c0,19.323,3.001,37.941,8.533,55.435H650.581z"/>
			<g>
				<path style="fill:#B3D4F5;" d="M80.08,340.2c0,0,30.19-113.52,70.7-168.7c13.01-17.73,25.64-29.44,36.3-29.44
					c0,0,15.11-2.06,27.65,22.61c0.62,1.22,1.23,2.5,1.84,3.86c7.7,17.19,16.2-10.02,30.55-34.49
					c9.62-16.43,21.87-31.61,38.27-31.31c17.01,0.32,30.34,14.01,41.26,29.88c15.3,22.24,25.85,48.77,35.12,48.77
					c6.89,0,14.19-7.1,21.92-15.14c10.13-10.53,20.97-22.67,32.54-22.67c6.47,0,17.79,9.48,30.53,24.05
					c27.44,31.42,61.42,86.52,67.38,121.45C522.86,340.2,80.08,340.2,80.08,340.2z"/>
				<g>
					<g>
						<g>
							<path style="fill:#E4EDF9;" d="M429.3,150.26c-4.02,3.1-7.94,6.98-11.76,10.93c-1.28-1.84-3.18-3.29-5.36-3.15
								c-4.41,0.28-5.73,5.99-8.2,9.66c-3.15,4.67-9.93,6.46-14.98,3.94c-2.7-1.35-4.4-3.21-5.31-5.4
								c10.13-10.53,20.97-22.67,32.54-22.67c2.45,0,5.6,1.36,9.25,3.84c0.57,0.39,1.15,0.8,1.74,1.24
								C427.9,149.15,428.59,149.69,429.3,150.26z"/>
						</g>
						<g>
							<path style="fill:#9FC4E2;" d="M417.54,161.19c-1.64,1.69-3.25,3.39-4.85,5.05c-7.73,8.04-15.03,15.14-21.92,15.14
								c-3.64,0-7.48-4.1-11.73-10.42c1.53-1.5,3.08-3.09,4.65-4.72c0.91,2.19,2.61,4.05,5.31,5.4c5.05,2.52,11.83,0.73,14.98-3.94
								c2.47-3.67,3.79-9.38,8.2-9.66C414.36,157.9,416.26,159.35,417.54,161.19z"/>
						</g>
						<g>
							<path style="fill:#E4EDF9;" d="M201.86,147.74c-7.02,5.12-14.49,13.41-22.08,23.76c-0.4,0.55-0.8,1.1-1.21,1.66
								c-1.3-3.41-2.37-7.26-5.5-8.63c-7.23-3.15-13.67,10.71-20.98,7.74c-0.48-0.19-0.91-0.45-1.31-0.77
								c13.01-17.73,25.64-29.44,36.3-29.44c0,0,0.46-0.06,1.29-0.03c0.08,0,0.16,0,0.24,0.01c0.06,0,0.11,0,0.16,0.01
								c0.05,0,0.1,0,0.15,0.01h0.07c0.11,0.01,0.21,0.02,0.33,0.03c0.02,0,0.04,0.01,0.07,0.01c0.08,0.01,0.17,0.02,0.25,0.03
								c0.56,0.06,1.21,0.17,1.93,0.34c0.13,0.03,0.27,0.06,0.4,0.1c0.76,0.19,1.6,0.45,2.49,0.79c0.14,0.06,0.29,0.11,0.44,0.18
								c0.09,0.04,0.19,0.08,0.29,0.12c1.48,0.63,3.09,1.49,4.8,2.68c0.16,0.11,0.32,0.22,0.48,0.34
								C200.93,147.01,201.39,147.36,201.86,147.74z"/>
						</g>
						<g>
							<path style="fill:#9FC4E2;" d="M178.57,173.16c-39.27,54.51-74.54,162.05-76.42,166.85c-18.25,0.19-22.07,0.19-22.07,0.19
								s30.19-113.52,70.7-168.7c0.4,0.32,0.83,0.58,1.31,0.77c7.31,2.97,13.75-10.89,20.98-7.74
								C176.2,165.9,177.27,169.75,178.57,173.16z"/>
						</g>
						<g>
							<path style="fill:#E4EDF9;" d="M300.18,106.55c-9.59,5.49-17.45,16.19-24.06,27.49c-0.24,0.4-0.47,0.8-0.7,1.21
								c-3.21,2.94-7.52,5.2-14.25,5.2c-6.12,0-10.68-2.71-14.05-6.41c9.62-16.43,21.87-31.61,38.27-31.31
								c0.49,0.01,0.98,0.03,1.47,0.07c0.49,0.02,0.98,0.07,1.47,0.12c0.21,0.02,0.42,0.05,0.63,0.08c0.23,0.03,0.47,0.06,0.7,0.1
								c0.19,0.03,0.38,0.06,0.57,0.09c0.31,0.05,0.63,0.11,0.94,0.18c0.26,0.05,0.52,0.1,0.77,0.16c0.39,0.09,0.77,0.19,1.16,0.29
								c0.48,0.12,0.96,0.26,1.44,0.42c0.02,0.01,0.05,0.01,0.07,0.02c0.37,0.11,0.73,0.23,1.09,0.37c0.03,0.01,0.05,0.01,0.07,0.02
								c0.23,0.08,0.46,0.17,0.68,0.25l0.54,0.21c0.19,0.07,0.38,0.15,0.57,0.23c0.29,0.12,0.59,0.25,0.88,0.38
								c0.29,0.13,0.58,0.26,0.87,0.4S299.89,106.4,300.18,106.55z"/>
						</g>
						<g>
							<path style="fill:#9FC4E2;" d="M261.17,140.45c6.73,0,11.04-2.26,14.25-5.2c-13.93,24.14-22.28,50.19-29.85,33.28
								c-0.61-1.36-1.22-2.64-1.84-3.86c-2.31-4.54-4.71-8.18-7.08-11.09c3.13-6.09,6.58-12.91,10.47-19.54
								C250.49,137.74,255.05,140.45,261.17,140.45z"/>
						</g>
					</g>
				</g>
				<path style="fill:#F5F9FF;" d="M326.65,132.61c-1.61,2.91-3.5,4.76-5.68,4.76c-10.03,0-20.56-15.39-30.8-15.39
					c-6.66,0-8.78,7.81-14.75,13.27c0.23-0.41,0.46-0.81,0.7-1.21c6.607-11.295,14.463-21.99,24.047-27.482
					C310.421,111.756,319.11,121.656,326.65,132.61z"/>
				<path style="fill:#F5F9FF;" d="M446.76,167.62c-1.35,2.33-3.17,4.36-5.44,5.86c-6.32,4.2-16.18,2.9-19.98-3.67
					c-1.33-2.3-1.85-4.99-3.05-7.36c-0.22-0.43-0.47-0.85-0.75-1.26c3.82-3.95,7.74-7.83,11.76-10.93
					C434.5,154.44,440.45,160.41,446.76,167.62z"/>
				<path style="fill:#F5F9FF;" d="M214.73,164.67c-1.52,0.28-3.42-0.04-5.75-1.16c-3.75-1.81-5.84-6.88-10.01-7.08
					c-3.41-0.17-5.98,3.25-6.73,6.58c-0.76,3.33-0.37,6.85-1.26,10.15c-0.9,3.3-3.84,6.52-7.2,5.92c-2.83-0.51-4.1-3.06-5.21-5.92
					c0.41-0.56,0.81-1.11,1.21-1.66c7.59-10.35,15.06-18.64,22.08-23.76C205.99,151.09,210.51,156.36,214.73,164.67z"/>
			</g>
			<g>
				
					<ellipse transform="matrix(0.9862 -0.1654 0.1654 0.9862 -40.2593 100.5427)" style="fill:#FFA904;" cx="583.379" cy="291.928" rx="32.172" ry="32.172"/>
				<path style="fill:none;stroke:#FEAA00;stroke-linecap:round;stroke-miterlimit:10;" d="M629.312,282.453
					c-2.809-13.689-11.584-25.203-23.489-31.705"/>
				<path style="fill:none;stroke:#FEAA00;stroke-linecap:round;stroke-miterlimit:10;" d="M583.379,245.038
					c-19.423,0-36.087,11.809-43.206,28.639"/>
				<path style="fill:none;stroke:#FEAA00;stroke-linecap:round;stroke-miterlimit:10;" d="M645.925,291.928
					c0-6.238-0.913-12.262-2.613-17.946"/>
				<path style="fill:none;stroke:#FEAA00;stroke-linecap:round;stroke-miterlimit:10;" d="M540.815,246.1
					c-8.869,8.241-15.342,19.026-18.259,31.193"/>
				<path style="fill:none;stroke:#FEAA00;stroke-linecap:round;stroke-miterlimit:10;" d="M567.033,231.541
					c5.211-1.407,10.691-2.158,16.347-2.158c7.101,0,13.925,1.183,20.287,3.364c13.409,4.595,24.762,13.62,32.313,25.327"/>
			</g>
		</g>
		<g>
			<g>
				<path style="fill:#D9E4F6;" d="M665.039,283.599c6.674,20.181-17.852,45.549-40.005,50.247
					c-23.528,4.99-47.095-0.92-49.007,7.079c-1.605,6.714,6.498,4.888,5.749,15.388c-2.038,28.564-285.249,27.465-322.408,0
					c-37.159-27.465-6.169-68.741,92.172-73.715C446.76,283.786,620.616,283.282,665.039,283.599z"/>
				<path style="fill:#AAC6EF;" d="M665.039,283.599c-8.072-0.058-20.421-0.127-35.773-0.203
					c1.128,18.999-20.949,40.325-41.074,44.592c-23.528,4.99-47.095-0.92-49.007,7.079c-1.605,6.714,6.498,4.888,5.749,15.388
					c-1.544,21.638-164.434,26.254-259.492,15.281c80.435,17.819,294.562,15.4,296.334-9.424c0.749-10.5-7.353-8.674-5.749-15.388
					c1.912-8,25.479-2.09,49.007-7.079C647.187,329.148,671.712,303.78,665.039,283.599z"/>
			</g>
			<g>
				<path style="fill:#4169AA;" d="M68.531,422.659c0,0-18.878-79.804-8.435-79.804c10.443,0,12.853,26.072,12.853,26.072
					s-6.828-56.701,2.41-56.701s13.657,30.216,13.657,30.216s-2.812-40.546,7.632-40.546c10.443,0,4.418,79.03,4.418,79.03
					s6.504-52.165,17.109-52.165s-11.084,68.288-10.683,65.443c0.402-2.845,17.673-22.763,27.715-22.763
					c10.042,0-18.878,51.216-18.878,51.216H68.531z"/>
				<path style="fill:#4D73BA;" d="M596.725,422.659c0,0-25.466-42.789-11.378-42.789c14.087,0,17.339,12.423,17.339,12.423
					s-9.211-44.17,3.251-44.17s18.422,37.268,18.422,37.268s-3.793-46.24,10.295-46.24s5.96,53.142,5.96,53.142
					s8.773-37.958,23.08-37.958c14.306,0-14.952,49.691-14.411,47.62c0.542-2.07,23.841-16.564,37.386-16.564
					c13.546,0-25.466,37.268-25.466,37.268H596.725z"/>
				<path style="fill:#4169AA;" d="M341.593,394.258c0,0-9.059-19.859-3.832-19.859c5.226,0,7.665,6.62,7.665,6.62
					s-1.742-18.466,3.484-18.466s5.923,15.853,5.923,15.853s3.484-22.124,8.71-22.124c5.226,0,0,28.569,0,28.569
					s3.136-16.027,8.013-16.027c4.878,0-1.742,19.859-1.742,19.859s9.059-19.859,13.588-19.859s-3.136,14.285-3.136,14.285
					s7.665-12.543,15.678-12.543s-10.104,18.466-10.104,18.466s4.788-6.968,12.149-6.968c7.362,0-6.923,12.194-6.923,12.194H341.593
					z"/>
				<path style="fill:#5FA1DD;" d="M581.421,422.659c0,0-6.932-24.679,0-25.788c6.932-1.109,6.655,6.932,6.655,6.932
					s-1.109-20.797,5.268-21.074c6.378-0.277,6.378,17.192,6.378,17.192s-0.277-24.124,7.487-24.401
					c7.764-0.277,5.268,22.46,5.268,22.46s0.836-10.324,8.136-10.655c7.3-0.332,8.295,9.622,8.295,9.622s3.982-7.3,8.295-7.3
					c4.313,0,4.977,9.441,4.977,9.441s7.632-20.058,15.595-19.063c7.963,0.995-5.309,23.89-5.309,23.89s16.922-6.968,18.913-0.332
					c1.991,6.636-19.577,19.075-19.577,19.075H581.421z"/>
				<path style="fill:#5FA1DD;" d="M608.121,336.025c0,0-9.059-19.859-3.833-19.859c5.226,0,7.665,6.62,7.665,6.62
					s-1.742-18.466,3.484-18.466s5.923,15.852,5.923,15.852s3.484-22.124,8.71-22.124c5.226,0,0,28.569,0,28.569
					s3.136-16.027,8.013-16.027c4.878,0-1.742,19.859-1.742,19.859s9.059-19.859,13.588-19.859c4.529,0-3.136,14.285-3.136,14.285
					s7.665-12.543,15.678-12.543c8.013,0-10.104,18.465-10.104,18.465s4.788-6.968,12.149-6.968s-6.923,12.194-6.923,12.194H608.121
					z"/>
			</g>
		</g>
		<g>
			<path style="fill:#7AA2D6;" d="M144.27,299.677c2.562-24.265,10.312-47.968,22.58-69.059c4.984-8.568,12.64-17.693,22.514-16.825
				c8.769,0.77,16.356,9.492,24.883,7.306c8.915-2.285,11.394-14.692,19.733-18.586c6.219-2.904,13.551-0.118,19.51,3.286
				c5.96,3.404,12.02,7.581,18.883,7.501c11.587-0.134,19.799-12.114,31.145-14.469c12.758-2.648,24.365,7.383,33.269,16.896
				c8.904,9.513,19.501,20.149,32.49,19.111c9.481-0.758,18.243-7.863,27.581-6.055c7.903,1.53,13.172,8.933,16.861,16.088
				c9.724,18.86,14.357,40.315,13.284,61.507c-95.62,0.917-191.226,3.34-286.77,7.268
				C141.482,308.692,143.734,304.756,144.27,299.677z"/>
			<path style="fill:#4D73BA;" d="M217.299,251.641c5.227-8.791,13.818-16.187,23.976-17.374c8.849-1.034,17.918,2.66,26.604,0.678
				c9.963-2.274,17.543-11.625,27.724-12.505c13.465-1.163,23.017,12.405,34.964,18.724c9.382,4.962,20.421,5.379,30.672,8.13
				c10.25,2.751,20.935,9.392,22.537,19.883c1.437,9.409-5.321,18.532-13.766,22.923c-8.444,4.391-18.256,5.095-27.754,5.715
				c-49.294,3.218-98.589,6.436-147.883,9.654C201.012,289.569,207.468,268.026,217.299,251.641z"/>
			<g>
				<g>
					<g>
						<path style="fill:#4D73BA;" d="M296.373,213.299c8.871-0.103,15.765-7.145,23.601-11.5
							c-5.155-2.767-10.687-4.167-16.455-2.969c-7.236,1.502-13.198,6.916-19.574,10.678
							C287.88,211.639,291.96,213.35,296.373,213.299z"/>
					</g>
					<g>
						<path style="fill:#4D73BA;" d="M168.27,299.677c2.562-24.265,10.312-47.968,22.58-69.059
							c2.643-4.544,6.038-9.244,10.117-12.528c-3.755-1.89-7.552-3.941-11.602-4.297c-9.874-0.868-17.53,8.257-22.514,16.825
							c-12.268,21.091-20.018,44.795-22.58,69.059c-0.536,5.079-2.787,9.016-4.038,13.967c8.089-0.333,16.178-0.639,24.268-0.95
							C165.779,308.182,167.769,304.423,168.27,299.677z"/>
					</g>
					<g>
						<path style="fill:#4D73BA;" d="M238.247,221.098c7.095-1.819,10.116-10.045,15.257-15.292
							c-0.005-0.003-0.009-0.005-0.014-0.008c-5.96-3.404-13.292-6.189-19.51-3.286c-5.622,2.625-8.582,9.117-12.645,13.771
							C226.986,218.962,232.395,222.598,238.247,221.098z"/>
					</g>
				</g>
			</g>
			<g>
				<g>
					<g>
						<path style="fill:#4169AA;" d="M291.879,234.945c6.311-1.44,11.667-5.717,17.333-8.884c-4.215-2.473-8.646-4.049-13.609-3.62
							c-9.245,0.799-16.35,8.566-25.036,11.693C277.71,234.48,284.918,236.533,291.879,234.945z"/>
					</g>
					<g>
						<path style="fill:#4169AA;" d="M241.299,251.641c4.296-7.225,10.867-13.499,18.71-16.167
							c-6.214-0.337-12.527-1.932-18.733-1.206c-10.159,1.187-18.749,8.583-23.976,17.374
							c-9.831,16.385-16.287,37.928-22.925,55.828c8.196-0.535,16.392-1.07,24.587-1.605
							C225.396,288.291,231.758,267.542,241.299,251.641z"/>
					</g>
				</g>
			</g>
		</g>
		<g>
			<g>
				<path style="fill:#D55B49;" d="M475.75,417.784c1.91,0.104,3.866-0.577,5.591-1.437c1.756-0.875,4.43-2.739,3.121-5.144
					c-0.487-0.895-1.57-1.333-2.59-1.332c-1.33,0.001-2.99,0.415-4.306,0.694c-1.443,0.306-2.97,0.831-4.044,1.882
					c-0.728,0.712-1.788,0.95-1.958,2.129c-0.135,0.936,0.495,1.849,1.306,2.337C473.792,417.467,474.765,417.73,475.75,417.784z"/>
				<path style="fill:#004581;" d="M466.075,325.512c-4.92,29.748,2.865,59.686,5.532,89.24c0.01,0.114,3.255-0.168,3.587-0.23
					c1.206-0.227,2.499-0.753,3.2-1.826c0.762-1.167,0.487-3.095,0.531-4.465c0.055-1.697,0.081-3.394,0.087-5.091
					c0.024-6.99-0.303-13.975-0.614-20.956c-0.472-10.57-0.996-21.202-0.12-31.766c5.178,19.745,12.835,36.555,23.235,64.02
					c1.838-0.079,5.339-0.178,7.178-0.257c-6.409-27.209-15.748-72.983-17.745-88.094
					C485.019,325.709,472.001,325.889,466.075,325.512z"/>
				<path style="fill:#D38F6C;" d="M482.68,298.422c2.217,0.323,4.434,0.647,6.652,0.97c-1.087-4.476-1.22-9.182-0.387-13.712
					c-0.126,0.685-5.443-1.815-5.81-1.894C483.343,288.842,483.921,293.382,482.68,298.422z"/>
				<path style="fill:#D38F6C;" d="M518.248,350.774c-0.048-0.319-0.095-0.638-0.143-0.957c1.104,0.537,2.208,1.074,3.312,1.611
					c0.604,0.294,1.402,0.561,1.88,0.09c0.298-0.294,0.326-0.782,0.174-1.172c-0.151-0.39-0.448-0.703-0.744-0.999
					c-1.75-1.745-3.731-3.257-5.875-4.484c-0.096-0.055-1.711,1.105-1.835,1.285c-0.377,0.547-0.287,0.826-0.021,1.417
					C515.588,348.881,517.04,350.057,518.248,350.774z"/>
				<path style="fill:#FEFEFD;" d="M484.098,292.33c4.199-1.643,9.12,0.276,12.279,3.493c3.159,3.217,4.934,7.507,6.636,11.683
					c4.717,11.574,10.434,26.147,15.15,37.721c-1.928,1.138-2.856,1.275-4.784,2.413c-6.653-10.935-14.187-24.55-18.49-36.606
					c-0.11,4.231,0.423,8.452,0.918,12.656c0.494,4.204,0.179,8.814-2.481,12.106c-2.019,2.498-5.15,3.894-8.315,4.438
					c-3.165,0.544-6.405,0.321-9.609,0.096c-4.094-0.288-8.754-0.88-11.097-4.25c-1.902-2.736-1.589-6.391-1.069-9.682
					c1.345-8.509,3.557-16.88,6.592-24.943c1.292-3.434,2.852-6.971,5.766-9.199C478.508,290.025,481.671,289.579,484.098,292.33z"
					/>
				<path style="fill:#D38F6C;" d="M493.767,284.482c-0.02,2.174-1.034,4.482-3.003,5.403c-2.155,1.009-4.918-0.019-6.243-1.996
					s-1.342-4.638-0.45-6.844c1.125-2.785,3.918-4.688,6.892-3.27C493.228,278.856,493.787,282.21,493.767,284.482z"/>
				<path style="fill:#D55B49;" d="M514.128,414.927c0.162,0.339,0.187,0.759,0.017,1.28c-0.579,1.774-2.634,1.678-4.112,1.644
					c-2.089-0.047-4.179-0.094-6.268-0.142c-0.781-0.018-1.629-0.06-2.224-0.567c-0.957-0.816-0.747-2.323-0.452-3.547
					c0.116-0.481,7.231-0.201,7.988-0.161C510.279,413.499,513.44,413.486,514.128,414.927z"/>
			</g>
			<path style="fill:#D38F6C;" d="M441.196,335.643c-0.048-0.319-0.095-0.638-0.143-0.957c1.104,0.537,2.208,1.074,3.312,1.611
				c0.604,0.294,1.402,0.561,1.88,0.09c0.298-0.294,0.326-0.782,0.174-1.172c-0.151-0.39-0.448-0.703-0.744-0.999
				c-1.75-1.745-3.731-3.257-5.875-4.484c-0.097-0.055-1.711,1.105-1.835,1.285c-0.377,0.547-0.287,0.826-0.021,1.417
				C438.536,333.75,439.988,334.926,441.196,335.643z"/>
			<g>
				<path style="fill:#004581;" d="M469.34,410.55c1.34,1.354-1.072,4.596-2.352,5.604c-1.829,1.439-4.112,2.155-6.362,2.745
					c-1.143,0.3-2.547,0.504-3.342-0.371c-0.6-0.661-0.572-1.686-0.313-2.541c0.741-2.448,3.256-3.921,5.495-4.786
					c1.637-0.633,3.931-1.496,5.705-1.185C468.711,410.112,469.09,410.298,469.34,410.55z"/>
				<path style="fill:#004581;" d="M449.415,411.676c0.984,0.036,2.172,0.307,2.465,1.248c0.178,0.572-0.074,1.21-0.488,1.643
					c-0.414,0.433-0.968,0.702-1.514,0.949c-2.587,1.173-5.289,2.089-8.055,2.733c-0.729,0.17-1.518,0.316-2.207,0.022
					c-0.896-0.383-1.356-1.432-1.341-2.406c0.016-0.974,0.411-1.897,0.799-2.791c0.18-0.414,4.493-0.651,5.173-0.806
					C445.973,411.873,447.629,411.61,449.415,411.676z"/>
				<path style="fill:#D38F6C;" d="M462.733,268.932c0.645,2.076,0.384,4.583-1.209,6.062c-1.744,1.619-4.689,1.484-6.554,0.006
					c-1.865-1.477-2.694-4.006-2.518-6.379c0.221-2.995,2.299-5.661,5.564-5.219C460.502,263.74,462.059,266.762,462.733,268.932z"
					/>
				<path style="fill:#D38F6C;" d="M452.102,284.407c2.217,0.323,4.434,0.647,6.652,0.97c-1.087-4.476-1.22-9.182-0.387-13.712
					c-0.126,0.685-5.443-1.815-5.809-1.894C452.765,274.827,453.343,279.367,452.102,284.407z"/>
				<path style="fill:#004581;" d="M464.107,261.731c-2.232,0.139-4.463,0.278-6.695,0.417c-2.42,0.151-5.094,0.416-6.738,2.199
					c-1.433,1.554-1.676,3.899-1.283,5.976c0.31,1.637,1.016,3.271,2.319,4.309c1.303,1.038,3.287,1.324,4.644,0.357
					c-0.404,0.288-1.138-3.987-0.741-4.718c0.558-1.027,1.682-1.14,2.703-1.454C461.471,267.844,464.137,265.225,464.107,261.731z"
					/>
				<path style="fill:#FFCB5D;" d="M450.346,276.444c1.084-0.506,3.086,0.194,4.129,0.147c1.717-0.076,3.592-0.25,5.004,0.73
					c0.365,0.254,0.682,0.578,0.914,0.957c0.585,0.952,0.569,2.241-0.04,3.178c-1.477,0.677-3.128,0.631-4.716,0.638
					c-1.441,0.006-3.097,0.54-4.506,0.296c-1.118-0.194-1.61-0.888-1.677-1.987c-0.055-0.889,0.102-1.838,0.154-2.728
					C449.647,277.012,449.929,276.639,450.346,276.444z"/>
				<path style="fill:#5FA1DD;" d="M441.24,324.512c-4.92,29.748-5.135,60.686-2.468,90.24c2.372-0.084,4.577,0.125,6.949,0.04
					c1.688-20.369,4.034-43.007,5.722-63.375c0.603,25.232,2.766,35.449,6.235,63.02c1.838-0.079,4.339-0.178,6.178-0.257
					c3.642-13.744,0.251-74.983-1.745-90.094C456.184,323.709,447.166,324.889,441.24,324.512z"/>
				<path style="fill:#D38F6C;" d="M508.424,313.061c0.741,1.153,0.608,2.796-0.309,3.815c-0.452,0.502-1.121,0.862-1.788,0.758
					c-0.961-0.151-1.521-1.139-1.94-2.017c-0.313-0.655-0.631-1.33-0.681-2.055C503.503,310.659,507.341,311.375,508.424,313.061z"
					/>
				<path style="fill:#FFCB5D;" d="M464.015,326.146c0.177-0.284,1.767-22.352,1.912-24.284
					c3.977,6.917,10.352,12.425,17.773,15.356c5.587,2.207,11.74,2.944,17.694,2.177c1.422-0.183,4.311-0.257,5.439-1.149
					c1.185-0.937,0.799-3.231,0.215-4.536c-0.416-0.93-1.355-2.339-2.384-2.686c-1.106-0.372-2.132,0.292-3.268,0.56
					c-2.778,0.655-5.682,0.822-8.517,0.494c-12.003-1.39-18.888-11.178-21.294-22.404c-0.983-4.584-2.509-8.097-7.442-9.22
					c-4.608-1.049-9.882-0.64-14.313,0.897c-3.977,1.38-7.63,3.675-10.583,6.676c-7.124,7.241-8.167,15.836-7.114,25.399
					c0.838,7.61-0.189,12.793,5.583,19.399c0.223,0.255,1.925-0.971,2.476-3.054c0.13-0.493-3.122-5.762-0.771-8.787
					c0.287-0.369,1.328,6.503,1.392,6.177C444.186,329.787,463.713,326.6,464.015,326.146z"/>
				<path style="fill:none;stroke:#FEAA00;stroke-linecap:round;stroke-miterlimit:10;" d="M439.422,320.985
					c0,0-4.057-14.961,0-24.617"/>
			</g>
			<path style="fill:#004581;" d="M491.526,284.036c-2.776,4.649-5.669,7.55-6.185,13.304c-0.339,3.779-0.003,7.588-0.175,11.378
				c-0.172,3.79-0.913,7.699-3.136,10.774c-2.829,3.914-8.557,5.449-13.137,4.173c-3.3-0.919-4.907-4.628-5.609-7.981
				c-1.828-8.72-0.495-18.069,3.699-25.93c3.431-6.431,8.776-11.882,15.145-15.432c2.729-1.521,5.067-2.678,7.906-0.856
				C493.853,275.918,493.636,280.504,491.526,284.036z"/>
		</g>
		
			<line style="fill:none;stroke:#3779AA;stroke-width:2;stroke-linecap:round;stroke-miterlimit:10;" x1="354.896" y1="422.659" x2="133.685" y2="422.659"/>
		<g>
			<g>
				<polygon style="fill:#3779AA;" points="338.36,422.66 329.14,422.66 317.09,403.47 314.87,399.93 307.13,387.61 334.81,381.27 
					336.41,399.93 336.71,403.47 				"/>
				<polygon style="fill:#004581;" points="336.71,403.47 317.09,403.47 314.87,399.93 336.41,399.93 				"/>
			</g>
			<g>
				<circle style="fill:#004581;" cx="164.691" cy="395.035" r="27.624"/>
				<circle style="fill:#3779AA;" cx="164.691" cy="395.035" r="17.708"/>
			</g>
			<path style="fill:#5FA1DD;" d="M357.092,399.276c0,0-156.23,4.85-263.4-3c0,0,1.73-15.86,4.94-36.38
				c3.31-21.27,8.2-47.54,14.36-66.35c0.05-0.15,0.1-0.3,0.15-0.45c3.09-9.37,6.51-16.84,10.2-20.85
				c9.35-10.15,56.05-18.96,101.94-23.15c0.21-0.02,0.43-0.04,0.64-0.06c14.19-1.28,28.28-2.12,41.15-2.42
				c0.17-0.01,0.34-0.01,0.51-0.01c26.26-0.59,47.34,1.08,53.59,5.84c2.05,1.56,3.98,3.41,5.8,5.53
				c5.04,5.87,9.24,13.74,12.74,22.77c0.56,1.43,1.09,2.9,1.61,4.39c0.06,0.16,0.12,0.32,0.17,0.48c3.19,9.21,5.72,19.39,7.73,29.76
				C357.092,355.856,357.092,399.276,357.092,399.276z"/>
			<g>
				<polygon style="fill:#004581;" points="94.73,396.39 67.685,396.39 63.054,391.606 94.809,387.37 				"/>
				<rect x="71.21" y="396.39" style="fill:#004581;" width="6.399" height="26.269"/>
			</g>
			<g>
				<path style="fill:#9AB8E5;" d="M332.023,364.576h7.76c1.594,0,2.887,1.292,2.887,2.887v7.76c0,1.594-1.292,2.886-2.887,2.886
					h-7.76c-1.594,0-2.887-1.292-2.887-2.886v-7.76C329.136,365.868,330.429,364.576,332.023,364.576z"/>
				<g>
					<rect x="111.161" y="351.774" style="fill:#9BB7E1;" width="112.185" height="7.337"/>
					<rect x="278.129" y="351.774" style="fill:#9BB7E1;" width="64.54" height="7.337"/>
					
						<line style="fill:none;stroke:#3779AA;stroke-linecap:round;stroke-miterlimit:10;" x1="339.882" y1="355.539" x2="283.342" y2="355.539"/>
					
						<line style="fill:none;stroke:#3779AA;stroke-linecap:round;stroke-miterlimit:10;" x1="220.938" y1="355.539" x2="113.302" y2="355.539"/>
				</g>
				<g>
					<path style="fill:#3187BC;" d="M200.9,292.4v13.04c0,6.38-5.17,11.54-11.54,11.54h-43.27c-6.38,0-11.54-5.16-11.54-11.54V292.4
						c0-6.38,5.16-11.54,11.54-11.54h43.27C195.73,280.86,200.9,286.02,200.9,292.4z"/>
					<path style="fill:#9BB7E1;" d="M200.9,292.4v9.88h-66.35v-9.88c0-6.38,5.16-11.54,11.54-11.54h43.27
						C195.73,280.86,200.9,286.02,200.9,292.4z"/>
					
						<line style="fill:none;stroke:#3779AA;stroke-linecap:round;stroke-miterlimit:10;" x1="191.355" y1="280.853" x2="146.09" y2="280.853"/>
					<g>
						
							<line style="fill:none;stroke:#84A6CE;stroke-linecap:round;stroke-miterlimit:10;" x1="200.9" y1="302.28" x2="134.55" y2="302.28"/>
						
							<line style="fill:none;stroke:#84A6CE;stroke-linecap:round;stroke-miterlimit:10;" x1="167.725" y1="302.28" x2="167.725" y2="307.469"/>
						<circle style="fill:none;stroke:#84A6CE;stroke-linecap:round;stroke-miterlimit:10;" cx="167.725" cy="309.469" r="1.572"/>
					</g>
				</g>
				<g>
					<path style="fill:#3187BC;" d="M237.797,275.192h26.187c6.064,0,10.979,4.916,10.979,10.979v92.596
						c0,6.064-4.916,10.979-10.979,10.979h-26.187c-6.064,0-10.979-4.916-10.979-10.979v-92.596
						C226.817,280.108,231.733,275.192,237.797,275.192z"/>
					
						<line style="fill:none;stroke:#3779AA;stroke-linecap:round;stroke-miterlimit:10;" x1="232.044" y1="281.351" x2="268.872" y2="281.351"/>
					<path style="fill:#3779AA;" d="M235.279,332.47c0-0.896-0.727-1.623-1.623-1.623s-1.623,0.727-1.623,1.623
						c0,0.896,0.727,1.623,1.623,1.623S235.279,333.366,235.279,332.47z"/>
					
						<line style="fill:none;stroke:#3779AA;stroke-linecap:round;stroke-miterlimit:10;" x1="232.044" y1="355.539" x2="268.872" y2="355.539"/>
				</g>
				<g>
					<path style="fill:#3187BC;" d="M349.26,315.49c-1.67,0.95-3.61,1.49-5.67,1.49h-43.27c-6.37,0-11.54-5.16-11.54-11.54V292.4
						c0-6.38,5.17-11.54,11.54-11.54h39.43c2.57,6.62,4.76,13.87,6.62,21.42C347.44,306.61,348.4,311.03,349.26,315.49z"/>
					<path style="fill:#9BB7E1;" d="M346.37,302.28h-57.59v-9.88c0-3.25,1.29-6.24,3.53-8.35c1.6-1.54,3.69-2.61,6.14-3.01
						c0.84-0.15,1.73-0.21,2.66-0.18h38.64c0.56,1.43,1.1,2.9,1.62,4.39c0.05,0.16,0.11,0.32,0.16,0.48
						C343.35,290.97,344.96,296.54,346.37,302.28z"/>
					<g>
						<line style="fill:none;stroke:#84A6CE;stroke-miterlimit:10;" x1="346.159" y1="302.28" x2="288.809" y2="302.28"/>
						<line style="fill:none;stroke:#84A6CE;stroke-miterlimit:10;" x1="319.984" y1="302.28" x2="319.984" y2="307.469"/>
						<path style="fill:none;stroke:#84A6CE;stroke-miterlimit:10;" d="M321.556,309.469c0-0.868-0.704-1.572-1.572-1.572
							c-0.868,0-1.572,0.704-1.572,1.572c0,0.868,0.704,1.572,1.572,1.572C320.853,311.041,321.556,310.337,321.556,309.469z"/>
					</g>
					
						<line style="fill:none;stroke:#3779AA;stroke-linecap:round;stroke-miterlimit:10;" x1="300.32" y1="280.86" x2="339.75" y2="280.86"/>
				</g>
				<g>
					
						<line style="fill:none;stroke:#FEAA00;stroke-width:2;stroke-linecap:round;stroke-miterlimit:10;" x1="274.964" y1="397.952" x2="274.964" y2="421.659"/>
					
						<line style="fill:none;stroke:#FEAA00;stroke-width:2;stroke-linecap:round;stroke-miterlimit:10;" x1="226.817" y1="397.952" x2="226.817" y2="421.659"/>
					
						<line style="fill:none;stroke:#FEAA00;stroke-width:2;stroke-linecap:round;stroke-miterlimit:10;" x1="274.964" y1="401.868" x2="226.817" y2="401.868"/>
					
						<line style="fill:none;stroke:#FEAA00;stroke-width:2;stroke-linecap:round;stroke-miterlimit:10;" x1="274.964" y1="410.551" x2="226.817" y2="410.551"/>
					
						<line style="fill:none;stroke:#FEAA00;stroke-width:2;stroke-linecap:round;stroke-miterlimit:10;" x1="274.964" y1="418.156" x2="226.817" y2="418.156"/>
				</g>
				
					<line style="fill:none;stroke:#3779AA;stroke-linecap:round;stroke-miterlimit:10;" x1="132.7" y1="272.535" x2="329.136" y2="272.535"/>
				<g>
					
						<line style="fill:none;stroke:#FEAA00;stroke-linecap:round;stroke-miterlimit:10;" x1="136.642" y1="366.329" x2="118.665" y2="366.329"/>
					
						<line style="fill:none;stroke:#FEAA00;stroke-linecap:round;stroke-miterlimit:10;" x1="136.642" y1="372.245" x2="118.665" y2="372.245"/>
					
						<line style="fill:none;stroke:#FEAA00;stroke-linecap:round;stroke-miterlimit:10;" x1="136.642" y1="378.16" x2="118.665" y2="378.16"/>
					
						<line style="fill:none;stroke:#FEAA00;stroke-linecap:round;stroke-miterlimit:10;" x1="136.642" y1="384.076" x2="118.665" y2="384.076"/>
				</g>
			</g>
			<g>
				<path style="fill:#FFCB5D;" d="M230.57,263.15c0,0-3.26-1.01-6.42-2.18c-3.22-1.2-6.3-2.53-6.3-2.53s-0.72,0.72-1.44,1.44
					c-0.69,0.73-1.48,1.38-1.48,1.38l-3.15,2.8c0,0,0.25,0.79,0.63,1.99c0.37,1.2,0.85,2.81,1.3,4.44c0.9,3.26,1.67,6.63,1.67,6.63
					s-0.75-0.41-1.86-1.02c-1.12-0.64-2.61-1.51-4.06-2.39c-2.91-1.76-5.69-3.62-5.69-3.62s-0.21,0.15-0.52,0.37
					s-0.74,0.5-1.18,0.77c-0.86,0.54-1.73,1.09-1.73,1.09s-0.89,0.56-1.79,1.13c-0.91,0.55-1.85,1.06-1.85,1.06s0.47,3.32,0.79,6.71
					c0.17,1.7,0.31,3.41,0.39,4.67c0.08,1.27,0.13,2.12,0.13,2.12s-2.69-2.14-5.24-4.34c-2.57-2.17-5.04-4.5-5.04-4.5l-3.76,1.7
					l-3.97,1.61c0,0-0.02,0.85-0.04,2.12c-0.03,1.27-0.1,2.94-0.18,4.63c-0.17,3.38-0.45,6.8-0.45,6.8s-2.33-2.47-4.58-5.04
					c-2.25-2.55-4.38-5.14-4.38-5.14s-0.99,0.33-1.99,0.61s-2,0.57-2,0.57s-1.04,0.29-2.08,0.58c-1.04,0.27-2.09,0.54-2.09,0.54
					s-0.47,3.34-1.05,6.69c-0.57,3.33-1.25,6.67-1.25,6.67s-2.02-2.73-3.95-5.52c-1.94-2.8-3.78-5.62-3.78-5.62
					s-1.02,0.22-2.05,0.39c-1.03,0.17-2.06,0.35-2.06,0.35s-1.07,0.18-2.14,0.35c-1.08,0.16-2.15,0.32-2.15,0.32
					s-0.82,3.28-1.75,6.54c-0.91,3.25-1.92,6.52-1.92,6.52s-1.73-2.93-3.36-5.91c-1.65-2.97-3.21-5.96-3.21-5.96
					s-1.04,0.09-2.08,0.17c-1.05,0.1-2.09,0.16-2.09,0.16s-1.09,0.07-2.17,0.13c-1.08,0.06-2.17,0.11-2.17,0.11
					s-1.14,3.19-2.38,6.33c-1.23,3.17-2.56,6.31-2.56,6.31s-1.43-3.09-2.76-6.22c-1.34-3.11-2.56-6.26-2.56-6.26
					s-0.83-0.02-1.74-0.04c0.05-0.15,0.1-0.3,0.15-0.45c0.12,0,0.25,0.01,0.38,0.01c1.73,0.04,4.06,0.07,6.4,0.02
					c4.68-0.06,9.38-0.4,9.38-0.4s1.17-0.07,2.93-0.22c1.75-0.13,4.09-0.38,6.43-0.64c4.67-0.52,9.29-1.33,9.29-1.33
					s1.16-0.19,2.89-0.49c1.72-0.35,4.04-0.75,6.31-1.29c4.58-0.99,9.06-2.28,9.06-2.28s1.13-0.33,2.81-0.81
					c1.66-0.54,3.89-1.21,6.08-1.99c2.18-0.79,4.37-1.57,5.97-2.25c1.61-0.66,2.68-1.09,2.68-1.09s1.05-0.48,2.63-1.19
					c0.79-0.37,1.73-0.75,2.69-1.24c0.96-0.49,1.99-1.01,3.02-1.53c1.04-0.5,2.03-1.08,2.97-1.61c0.94-0.53,1.81-1.02,2.57-1.44
					c1.47-0.89,2.43-1.51,2.43-1.51s0.97-0.61,2.42-1.53c1.39-1,3.3-2.26,5.11-3.65c1.78-1.43,3.63-2.77,4.86-3.94
					c1.28-1.13,2.13-1.89,2.13-1.89s0.87-0.73,2.06-1.96c1.19-1.2,2.85-2.76,4.3-4.5c0.75-0.85,1.5-1.7,2.21-2.49
					c0.65-0.84,1.26-1.62,1.78-2.3c0.12-0.16,0.24-0.31,0.35-0.46c0.21-0.02,0.43-0.04,0.64-0.06l-1.46,1.88
					c0,0,0.41,0.73,1.03,1.84c0.63,1.13,1.42,2.62,2.16,4.12C229.19,260,230.57,263.15,230.57,263.15z"/>
				<path style="fill:#D55B49;" d="M341.53,285.73l-4.01-0.24c0,0-1.46,3.07-3.05,6.02c-1.57,2.98-3.28,5.95-3.28,5.95
					s-0.26-0.81-0.64-2.02c-0.38-1.21-0.86-2.84-1.31-4.48c-0.92-3.28-1.69-6.54-1.69-6.54s-1.01-0.13-2.01-0.3
					c-1-0.19-1.99-0.37-1.99-0.37s-1.04-0.19-2.07-0.39c-1.03-0.2-2.05-0.45-2.05-0.45s-1.89,2.76-3.93,5.49
					c-2.03,2.72-4.21,5.33-4.21,5.33s-0.52-3.37-0.87-6.72c-0.27-2.54-0.44-5.04-0.51-6.15c-0.03-0.38-0.04-0.59-0.04-0.59
					s-0.96-0.29-1.91-0.63c-0.94-0.35-1.87-0.71-1.87-0.71s-0.99-0.35-1.95-0.74c-0.95-0.41-1.9-0.81-1.9-0.81s-0.6,0.59-1.5,1.48
					c-0.64,0.63-1.43,1.39-2.29,2.18c-0.36,0.32-0.73,0.66-1.1,0.99c-2.49,2.26-5.17,4.44-5.17,4.44s0.04-0.86,0.11-2.14
					c0-0.09,0.01-0.18,0.02-0.28c0.07-1.24,0.19-2.83,0.34-4.39c0.3-3.35,0.82-6.68,0.82-6.68s-0.86-0.5-1.71-1.01
					c-0.85-0.51-1.67-1.06-1.67-1.06s-0.88-0.55-1.72-1.13c-0.84-0.6-1.68-1.19-1.68-1.19s-0.71,0.45-1.78,1.12
					c-1.07,0.66-2.51,1.51-3.99,2.34c-2.96,1.68-6.04,3.15-6.04,3.15s0.23-0.82,0.58-2.05c0.36-1.23,0.85-2.84,1.4-4.46
					c0.55-1.61,1.13-3.19,1.58-4.36c0.47-1.16,0.78-1.94,0.78-1.94s-0.71-0.69-1.41-1.38c-0.68-0.7-1.37-1.41-1.37-1.41
					s-0.7-0.74-1.37-1.51c-0.69-0.75-1.32-1.54-1.32-1.54s-3.17,1.1-6.45,1.94c-1.64,0.44-3.3,0.82-4.55,1.08
					c-1.26,0.25-2.11,0.42-2.11,0.42s1.7-3,3.61-5.8c0.95-1.4,1.93-2.76,2.7-3.76c0.77-0.98,1.29-1.63,1.29-1.63
					s-0.48-0.82-0.9-1.63c-0.08-0.15-0.16-0.3-0.23-0.44c0.17-0.01,0.34-0.01,0.51-0.01c0.13,0.26,0.29,0.56,0.47,0.89
					c0.75,1.36,1.88,3.18,3.14,4.94c1.24,1.77,2.65,3.46,3.71,4.7c0.55,0.62,1,1.13,1.32,1.49c0.33,0.34,0.52,0.54,0.52,0.54
					s3,3.22,6.42,6.02c3.38,2.84,7.14,5.22,7.14,5.22s0.23,0.15,0.64,0.42c0.4,0.27,0.99,0.63,1.71,1.05
					c1.42,0.87,3.38,1.93,5.36,2.95c1.01,0.48,2.01,0.96,2.96,1.41c0.96,0.41,1.86,0.8,2.63,1.13c0.77,0.34,1.42,0.59,1.89,0.75
					c0.46,0.18,0.72,0.27,0.72,0.27s0.26,0.1,0.72,0.28c0.46,0.16,1.11,0.43,1.91,0.69c1.23,0.4,2.76,0.92,4.4,1.39
					c0.5,0.15,1.01,0.29,1.52,0.42c2.16,0.65,4.4,1.08,6.04,1.48c1.67,0.34,2.79,0.54,2.79,0.54s0.28,0.05,0.77,0.14
					c0.49,0.08,1.18,0.24,2.03,0.35c0.84,0.12,1.83,0.26,2.89,0.41c0.53,0.08,1.07,0.16,1.63,0.23c0.56,0.06,1.13,0.12,1.69,0.17
					c1.14,0.12,2.28,0.23,3.35,0.33c1.07,0.09,2.07,0.13,2.93,0.18c1.1,0.06,1.96,0.12,2.44,0.14h0.01
					C341.42,285.41,341.48,285.57,341.53,285.73z"/>
			</g>
		</g>
		<g>
			<path style="fill:#C9DAEE;" d="M661.015,152.486c0,0-93.954,0-93.981,0c0-6.507,2.839-10.657,3.781-12.385
				c2.229-4.087,8.191-7.37,12.84-7.999c1.79-0.242,3.625-0.157,5.383-0.574c4.476-1.063,7.574-5.134,9.648-9.241
				c2.074-4.107,3.579-8.61,6.652-12.035c3.107-3.462,9.25-5.333,13.665-3.744c4.901,1.763,6.483,8.681,7.513,13.096
				c1.257,5.384,3.677,11.691,9.115,12.687c3.067,0.562,6.118-0.844,9.213-1.223c4.794-0.586,9.828,1.504,12.797,5.314
				C660.608,140.192,662.755,147.981,661.015,152.486z"/>
			<path style="fill:#C9DAEE;" d="M540.07,214.78H464.48c-1.122-4.09,3.543-8.874,7.599-10.113
				c4.056-1.238,8.539-1.106,12.304-3.058c4.188-2.172,6.716-6.501,9.978-9.91c3.262-3.409,8.507-6.031,12.581-3.651
				c4.541,2.653,5.514,10.355,10.743,10.911c2.508,0.267,4.781-1.407,7.244-1.95c4.281-0.943,8.702,1.746,11.137,5.392
				S539.246,210.474,540.07,214.78z"/>
			<path style="fill:#C9DAEE;" d="M214.881,114.973c-1.585-0.717-80.324,0-80.324,0c2.636-6.126,5.934-13.642,12.391-15.312
				c5.454-1.41,11.454,1.457,16.764-0.423c4.795-1.698,7.458-6.644,10.813-10.467c3.355-3.823,9.45-6.702,13.29-3.367
				c2.968,2.578,2.975,7.713,6.343,9.741c3.248,1.956,7.434-0.219,11.185,0.328c3.643,0.531,6.473,3.667,7.727,7.128
				C214.325,106.062,214.924,111.292,214.881,114.973z"/>
		</g>
	</g>
</g>
</svg>
