<svg xmlns="http://www.w3.org/2000/svg" xmlns:xlink="http://www.w3.org/1999/xlink"
	viewBox="1.2200000286102295 -38.720001220703125 269.32000732421875 46.480003356933594" data-palette-color="#3949fd">
	<path
		d="M19.26-22.02L19.26-12.16 19.24-11.79Q19.24-10.94 19.3-10.53 19.36-10.13 19.8-9.58 20.24-9.03 22.66-9.03L22.66-9.03 23.32-9.01Q23.68-9.01 23.97-9.08L23.97-9.08 24 0.02 10.64 0.02 9.81 0.07 9.55 0.07Q8.64 0.07 7.57-0.51 6.49-1.1 5.97-1.55 5.44-2 5.08-2.71L5.08-2.71Q4.39-4.03 4.26-5.31 4.13-6.59 4.13-8.5L4.13-8.5 4.13-22.02 1.25-22.02 1.22-25.44 1.22-28.93 4.03-28.93 4.03-37.01 11.57-37.01 19.12-37.04 19.14-28.98 23.22-28.98 23.24-25.49 23.24-22.02 19.26-22.02ZM26.51-14.55L26.51-29.22 33.01-29.25 39.5-29.25 40.04-25.98Q40.6-22.53 40.7-22.07L40.7-22.07 41.55-22.07Q42.45-26.25 45.02-28L45.02-28 45.99-28.56Q46.07-28.71 46.87-29.1L46.87-29.1 46.77-29.08 47.34-29.3Q49.73-30.25 51.46-30.27L51.46-30.27Q51.83-30.27 51.95-30.22L51.95-30.22 52.85-30.22 52.85-16.6Q52.34-16.72 51.24-16.72 50.14-16.72 48.98-16.41 47.82-16.09 47.03-15.59 46.24-15.09 45.65-14.31L45.65-14.31Q43.85-11.89 43.85-7.06L43.85-7.06 43.89-4.49 43.89 0 35.2 0.02 26.54 0.02 26.51-14.55ZM55.9-38.48L70.99-38.53 71.02-31.84 55.98-31.84Q55.98-34.18 55.93-35.18L55.93-35.18 55.9-38.48ZM55.9-38.48L55.66-38.48 55.9-38.72 55.9-38.48ZM71.09-8.5L71.09-7.74 71.11-7.52 71.14-3.86Q71.14-2.86 71.04-1.46 70.94-0.07 70.87-0.02L70.87-0.02 70.43 0.02 61.54 0.02 60.52 0.12Q56.71 0.12 55.88 0.02L55.88 0.02 55.88-0.15 55.85-0.61 55.85-1.71Q55.85-6.52 56-9.69L56-9.69 56.27-28.49 56.27-29.22 58.17-29.25 58.59-29.22 59.3-29.22 59.91-29.2 60.22-29.22 61.98-29.22 62.35-29.25 70.67-29.15Q70.77-29.17 70.82-29.17 70.87-29.17 70.87-29.03L70.87-29.03 70.89-26.71Q70.92-24.39 70.99-20.5 71.06-16.6 71.06-14.99L71.06-14.99 71.04-11.94 71.04-10.64 71.11-9.35 71.11-8.59Q71.11-8.57 71.09-8.5L71.09-8.5ZM73.87-10.72L73.87-29.2 80.17-29.22 86.54-29.22Q87-28.27 87.37-27.61L87.37-27.61 88.3-25.9Q90.89-28.27 93.07-29.26 95.26-30.25 97.84-30.25 100.43-30.25 102.48-29.3L102.48-29.3Q106.1-27.61 107.84-23.58 109.59-19.56 109.59-14.99L109.59-14.99Q109.59-14.4 109.49-13.92L109.49-13.92Q109.1-9.67 108.01-6.87 106.93-4.08 104.19-1.56L104.19-1.56 104.19-1.59Q101.75 0.51 99.55 0.51L99.55 0.51Q98.92 0.81 98.27 0.81 97.62 0.81 96.46 0.65 95.31 0.49 94.94 0.29L94.94 0.29Q91.55-0.44 89.45-2.59L89.45-2.59 88.52-2.56Q88.74-1.17 88.74-0.17L88.74-0.17 88.71 0.27 88.71 7.74 81.29 7.76 73.89 7.76 73.87-10.72ZM94.3-12.28L94.3-12.28 94.43-13.82Q94.4-13.84 94.4-13.92 94.4-13.99 94.43-14.04L94.43-14.04 94.43-14.45Q94.43-15.65 94.33-16.43L94.33-16.43 94.18-17.46Q94.13-17.7 93.91-18.95L93.91-18.95Q93.33-22.09 91.45-22.09L91.45-22.09Q88.42-22.09 88.42-14.14L88.42-14.14Q88.42-9.77 89.76-7.76L89.76-7.76Q90.4-6.84 91.33-6.62L91.33-6.62Q93.86-6.84 94.3-12.28ZM144.5-18.65L144.45-16.24 144.47-8.64 144.47-4.17 144.5 0.02 130.63 0.02 130.61-12.48 130.68-15.19Q130.68-17.41 130.03-18.49 129.38-19.58 128.43-19.58L128.43-19.58Q126.63-19.58 126.19-17.77L126.19-17.77Q125.87-16.5 125.87-14.45L125.87-14.45 125.87-11.33 125.89-10.3 125.89 0 118.89 0.02 111.93 0.02 111.9-19.12 111.9-38.28Q116.81-38.33 126.04-38.33L126.04-38.33 126.06-26.03Q127.77-27.95 130.23-29.1 132.68-30.25 134.71-30.25 136.73-30.25 138.69-29.27 140.64-28.3 141.91-26.68L141.91-26.68Q142.98-25 143.74-22.62 144.5-20.24 144.5-18.65L144.5-18.65ZM158.68-16.04L159.8-16.21 160.05-16.19 160.63-16.19Q161.46-16.19 161.93-16.31L161.93-16.31 163.24-16.48Q166.61-16.72 167.3-18.29L167.3-18.29Q167.64-19.07 167.64-20.26L167.64-20.26Q167.49-20.51 167.49-21.19 167.49-21.88 166.8-22.63 166.1-23.39 165.15-23.39L165.15-23.39 165.03-23.39Q162.68-23.39 162.68-19.41L162.68-19.41Q162.56-19.21 162.28-19.26 162-19.31 160.93-19.31L160.93-19.31 148.33-19.31Q148.45-21 149.21-22.95L149.21-22.95Q150.65-26.71 154.78-28.36 158.92-30 163-30.15L163-30.15 164.47-30.22 165.25-30.3Q165.39-30.3 165.54-30.22L165.54-30.22 165.86-30.22 166.96-30.27Q167.3-30.27 168.49-30.1L168.49-30.1 169.2-30Q169.37-29.98 169.74-29.98 170.1-29.98 171.28-29.82 172.45-29.66 174.21-28.98L174.21-28.98Q180.16-26.64 181.43-20L181.43-20Q181.97-17.19 181.97-13.77L181.97-13.77Q182.14-13.21 182.14-12.74L182.14-12.74 182.02-11.06 182.02-8.23Q182.04-8.18 182.04-7.81L182.04-7.81 181.99-6.15 181.99-5.93Q182.07-5.81 182.07-5.59L182.07-5.59 182.04-5.37 182.04-4.86Q182.04-2.54 182.75-0.46L182.75-0.46 183 0.07 171.96 0.07 171.08 0.05Q170.1 0.05 169.59 0.07L169.59 0.07Q168.81-1.39 168.1-3.93L168.1-3.93Q167.79-3.27 167.02-2.43 166.25-1.59 165.88-1.59L165.88-1.59Q162.27 0.17 160.39 0.42L160.39 0.42Q157.6 0.88 157.4 0.88 157.19 0.88 157.19 0.88L157.19 0.88Q151.35 0.88 148.38-3.17L148.38-3.17Q146.89-5.25 146.89-7.98L146.89-7.98Q146.89-13.92 152.4-15.26L152.4-15.26Q153.82-15.6 157.87-15.97L157.87-15.97 158.68-16.04ZM167.81-9.81L167.81-10.55 167.83-11.33Q167.83-12.55 167.64-13.67L167.64-13.67Q167.1-13.38 166.08-13.01 165.05-12.65 164.44-12.39 163.83-12.13 163.33-11.49 162.83-10.84 162.83-9.72 162.83-8.59 163.55-7.67 164.27-6.74 165.12-6.74L165.12-6.74Q166.96-6.74 167.74-8.06L167.74-8.06 167.79-8.3 167.81-9.81ZM212.34-28.96L212.34-28.96 214.15-17.29 214.19-17.29Q214.54-19.14 215.07-22.61L215.07-22.61 215.46-25.15 215.81-26.95Q215.98-28.61 216.15-29.25L216.15-29.25 232.14-29.25Q230.72-22.63 226.91-5.35L226.91-5.35 225.55 0.02 210.02 0.02 209.48-4.05Q209.07-6.74 208.62-10.49 208.16-14.23 208.11-14.23L208.11-14.23 205.97 0.02 189.44 0.02Q188.61-3.83 187.75-9.34 186.9-14.84 186.73-15.92L186.73-15.92 186.22-19.17Q186.22-19.19 184.51-29.27L184.51-29.27 192.69-29.27 200.82-29.3Q200.86-28.64 200.94-28.32L200.94-28.32 201.08-27.27Q201.96-19.58 202.16-17.02L202.16-17.02 202.26-17.02Q202.35-17.6 202.55-18.98 202.74-20.36 202.87-21.12L202.87-21.12 204.06-28.27 204.11-28.91Q206.77-28.96 212.34-28.96ZM252.77-29.25L265.85-29.25 266.32-29.22 268.2-29.22Q268.34-29.22 268.62-29.25 268.9-29.27 269.1-29.27L269.1-29.27Q268.88-28.13 267.66-26.2L267.66-26.2Q267.24-25.71 266.9-25.02L266.9-25.02 266.9-25.05Q265.66-23.17 262.21-17.19L262.21-17.19Q263.97-13.4 265.39-10.51 266.8-7.62 267.59-6.01L267.59-6.01 270.54 0.02 253.74 0.02 252.06-5Q251.03-7.98 249.54-12.87L249.54-12.87 248.62-10.77 248.62-0.02Q246.25 0.05 241.07 0.05 235.9 0.05 232.97 0L232.97 0 232.97-38.31 240.73-38.31 248.49-38.33Q248.49-35.38 248.55-27.71 248.62-20.04 248.62-16.94L248.62-16.94 249.54-19.68Q250.42-22.49 252.77-29.25L252.77-29.25Z"
		opacity="1" transform="matrix(1,0,0,1,0,0)" fill="#3949fd" class="wordmark-text-0" data-fill-palette-color="primary"
		id="text-0"></path>
</svg>