<svg xmlns="http://www.w3.org/2000/svg" xmlns:xlink="http://www.w3.org/1999/xlink"
	viewBox="0 0 369.66666666666663 118.99046976793639">
	<defs id="SvgjsDefs1031"></defs>
	<g id="SvgjsG1032" featurekey="FRM3ZD-0"
		transform="matrix(10.602205721795393,0,0,10.602205721795393,-0.3013151929748732,-93.05342222484299)" fill="#232931">
		<path
			d="M7.1 13.92 c0.38666 0.32 0.69336 0.68998 0.92002 1.11 s0.34 0.87666 0.34 1.37 s-0.12 0.96 -0.36 1.4 s-0.57 0.82334 -0.99 1.15 s-0.91 0.58332 -1.47 0.76998 s-1.16 0.28 -1.8 0.28 s-1.2367 -0.09334 -1.79 -0.28 s-1.0367 -0.44 -1.45 -0.76 l1.1 -4.14 c-0.58666 -0.54666 -0.88 -1.1867 -0.88 -1.92 c0 -0.44 0.11666 -0.85334 0.35 -1.24 s0.55 -0.72332 0.95 -1.01 s0.86666 -0.51332 1.4 -0.67998 s1.1 -0.25 1.7 -0.25 c0.54666 0 1.0667 0.06666 1.56 0.2 s0.93334 0.33334 1.32 0.6 z">
		</path>
	</g>
	<g id="SvgjsG1033" featurekey="vMvB0T-0"
		transform="matrix(3.2035883944222676,0,0,3.2035883944222676,102.0389259258173,22.6503262198967)" fill="#232931">
		<path
			d="M0.3 18.82 q0.06 -0.66 0.41 -1.32 t0.83 -1.08 q2.14 1.3 4.06 1.3 q0.84 0 1.23 -0.38 t0.39 -0.94 q0 -0.94 -1.26 -1.48 l-2.36 -1 q-1.38 -0.62 -2.12 -1.49 t-0.74 -2.21 q0 -0.92 0.37 -1.68 t1.04 -1.32 t1.59 -0.87 t2.04 -0.31 q2.24 0 4.52 1.14 q-0.1 1.54 -1.08 2.4 q-2.04 -0.98 -3.6 -0.98 q-0.8 0 -1.2 0.36 t-0.4 0.82 q0 0.78 1.18 1.26 l2.4 1.02 q1.52 0.64 2.27 1.64 t0.75 2.32 q0 0.94 -0.34 1.72 t-1.01 1.35 t-1.67 0.89 t-2.34 0.32 q-2.6 0 -4.96 -1.48 z M15.98 17.14 q-0.54 0 -0.8 -0.02 l-0.86 2.9 q-0.48 0.12 -1.34 0.12 q-0.96 0 -1.56 -0.22 l-0.1 -0.16 l4.4 -13.42 q0.78 -0.12 1.82 -0.12 q1.18 0 1.88 0.14 l4.32 13.44 q-0.7 0.38 -1.58 0.38 q-1.04 0 -1.46 -0.36 t-0.72 -1.38 l-0.38 -1.32 q-0.26 0.02 -0.78 0.02 l-2.84 0 z M15.920000000000002 14.620000000000001 l0.8 -0.02 l1.46 0 q0.1 0 0.35 0.01 t0.37 0.01 l-0.34 -1.24 q-0.48 -1.68 -1.1 -4.12 l-0.12 0 q-0.16 0.86 -0.96 3.82 z M29.24 17.32 l2.62 -10.98 q0.48 -0.12 1.24 -0.12 q1.04 0 1.64 0.22 l0.12 0.16 l-3.74 13.4 q-1.14 0.12 -2.29 0.12 t-1.66 -0.29 t-0.77 -1.15 l-3.32 -12.06 q1.08 -0.46 1.78 -0.46 q0.84 0 1.24 0.38 t0.62 1.2 l1.54 5.7 q0.36 1.34 0.76 3.64 q0.04 0.24 0.22 0.24 z M41.36 17.32 l2.62 -10.98 q0.48 -0.12 1.24 -0.12 q1.04 0 1.64 0.22 l0.12 0.16 l-3.74 13.4 q-1.14 0.12 -2.29 0.12 t-1.66 -0.29 t-0.77 -1.15 l-3.32 -12.06 q1.08 -0.46 1.78 -0.46 q0.84 0 1.24 0.38 t0.62 1.2 l1.54 5.7 q0.36 1.34 0.76 3.64 q0.04 0.24 0.22 0.24 z M48.7 20 l0 -13.66 q0.62 -0.12 1.6 -0.12 t1.62 0.12 l0 13.66 q-0.64 0.12 -1.62 0.12 t-1.6 -0.12 z M58.18000000000001 9.06 l0.02 1.56 l0 1.26 l4.28 0 q0.16 0.6 0.16 1.31 t-0.16 1.31 l-4.28 0 l0 5.5 q-0.64 0.12 -1.6 0.12 t-1.6 -0.12 l0 -13.54 l0.14 -0.12 l8.56 0 q0.12 0.5 0.12 1.25 t-0.41 1.11 t-1.29 0.36 l-3.94 0 z M70.76 17.3 l3.46 0 q0 0.8 -0.1 1.37 t-0.64 0.98 t-1.42 0.41 l-4.52 0 q-0.86 0 -1.36 -0.5 t-0.5 -1.36 l0 -11.86 l0.14 -0.14 l1.18 0 q1.88 0 1.88 2.04 l0 9.14 q0.88 -0.08 1.88 -0.08 z M79.2 9.72 l1.34 -3.38 q0.52 -0.12 1.34 -0.12 q0.88 0 1.52 0.24 l0.14 0.16 l-3.88 9.18 l0 4.2 q-0.62 0.12 -1.6 0.12 t-1.6 -0.12 l0 -4.28 l-3.86 -9 q0.92 -0.54 1.76 -0.54 t1.21 0.29 t0.65 0.99 l0.96 2.38 q0.52 1.28 0.9 2.86 l0.12 0 q0.32 -1.26 1 -2.98 z">
		</path>
	</g>
</svg>